<svg xmlns="http://www.w3.org/2000/svg" viewBox="0 0 64 64" fill="none">
  <defs>
    <linearGradient id="shield" x1="0" y1="0" x2="64" y2="64">
      <stop offset="0%" stop-color="#0039a6"/>
      <stop offset="100%" stop-color="#001f5f"/>
    </linearGradient>
    <linearGradient id="gold" x1="0" y1="0" x2="64" y2="64">
      <stop offset="0%" stop-color="#ffd700"/>
      <stop offset="100%" stop-color="#b8860b"/>
    </linearGradient>
  </defs>
  <!-- Shield -->
  <path d="M32 4 L56 14 L56 32 C56 48 44 58 32 62 C20 58 8 48 8 32 L8 14 Z" fill="url(#shield)" stroke="#ffd700" stroke-width="2"/>
  <!-- Book bottom -->
  <path d="M20 36 L32 42 L44 36 L44 48 L32 54 L20 48 Z" fill="url(#gold)" opacity="0.9"/>
  <line x1="32" y1="42" x2="32" y2="54" stroke="#001f5f" stroke-width="1"/>
  <!-- Book top -->
  <path d="M20 24 L32 30 L44 24" fill="none" stroke="#ffd700" stroke-width="2" stroke-linecap="round"/>
  <path d="M20 24 L20 36" stroke="#ffd700" stroke-width="2"/>
  <path d="M44 24 L44 36" stroke="#ffd700" stroke-width="2"/>
  <path d="M32 30 L32 42" stroke="#ffd700" stroke-width="1.5"/>
  <!-- Flame -->
  <path d="M32 12 C34 16 36 18 36 22 C38 18 38 14 36 10 C34 8 32 6 32 6 C32 6 30 8 28 10 C26 14 26 18 28 22 C28 18 30 16 32 12Z" fill="#ffd700"/>
  <!-- Text FFB -->
  <text x="32" y="20" text-anchor="middle" font-family="serif" font-weight="bold" font-size="10" fill="#ffd700">FFB</text>
  <!-- Laurel left -->
  <path d="M12 32 C14 28 16 26 14 22 C16 24 18 28 16 32" stroke="#ffd700" stroke-width="1.5" fill="none"/>
  <path d="M10 38 C12 34 14 32 12 28 C14 30 16 34 14 38" stroke="#ffd700" stroke-width="1.5" fill="none"/>
  <path d="M11 44 C13 40 15 38 13 34 C15 36 17 40 15 44" stroke="#ffd700" stroke-width="1.5" fill="none"/>
  <!-- Laurel right -->
  <path d="M52 32 C50 28 48 26 50 22 C48 24 46 28 48 32" stroke="#ffd700" stroke-width="1.5" fill="none"/>
  <path d="M54 38 C52 34 50 32 52 28 C50 30 48 34 50 38" stroke="#ffd700" stroke-width="1.5" fill="none"/>
  <path d="M53 44 C51 40 49 38 51 34 C49 36 47 40 49 44" stroke="#ffd700" stroke-width="1.5" fill="none"/>
</svg>
